<svg width="40" height="42" viewBox="0 0 40 42" fill="none" xmlns="http://www.w3.org/2000/svg">
<path d="M27 28.9988L31 32.9992L39 24.9984M37 16.9975V12.9971C36.9993 12.2956 36.8141 11.6066 36.4631 10.9992C36.112 10.3919 35.6075 9.88753 35 9.53677L21 1.53595C20.3919 1.18484 19.7021 1 19 1C18.2979 1 17.6081 1.18484 17 1.53595L3 9.53677C2.39253 9.88753 1.88796 10.3919 1.53692 10.9992C1.18589 11.6066 1.00072 12.2956 1 12.9971V28.9988C1.00072 29.7003 1.18589 30.3893 1.53692 30.9966C1.88796 31.604 2.39253 32.1084 3 32.4591L17 40.4599C17.6081 40.8111 18.2979 40.9959 19 40.9959C19.7021 40.9959 20.3919 40.8111 21 40.4599L25 38.1797M10 5.53636L28 15.8374M1.58 10.9969L19 20.9979M19 20.9979L36.42 10.9969M19 20.9979V41" stroke="#515050" stroke-width="2" stroke-linecap="round" stroke-linejoin="round"/>
</svg>
