<svg width="42" height="42" viewBox="0 0 42 42" fill="none" xmlns="http://www.w3.org/2000/svg">
<path d="M33 15H37C38.0609 15 39.0783 15.4214 39.8284 16.1716C40.5786 16.9217 41 17.9391 41 19V41L33 33H21C19.9391 33 18.9217 32.5786 18.1716 31.8284C17.4214 31.0783 17 30.0609 17 29V27M25 15C25 16.0609 24.5786 17.0783 23.8284 17.8284C23.0783 18.5786 22.0609 19 21 19H9L1 27V5C1 3.93913 1.42143 2.92172 2.17157 2.17157C2.92172 1.42143 3.93913 1 5 1H21C22.0609 1 23.0783 1.42143 23.8284 2.17157C24.5786 2.92172 25 3.93913 25 5V15Z" stroke="#515050" stroke-width="2" stroke-linecap="round" stroke-linejoin="round"/>
</svg>
