<svg width="42" height="34" viewBox="0 0 42 34" fill="none" xmlns="http://www.w3.org/2000/svg">
<path d="M25 29V5C25 3.93913 24.5786 2.92172 23.8284 2.17157C23.0783 1.42143 22.0609 1 21 1H5C3.93913 1 2.92172 1.42143 2.17157 2.17157C1.42143 2.92172 1 3.93913 1 5V27C1 27.5304 1.21071 28.0391 1.58579 28.4142C1.96086 28.7893 2.46957 29 3 29H7M7 29C7 31.2091 8.79086 33 11 33C13.2091 33 15 31.2091 15 29M7 29C7 26.7909 8.79086 25 11 25C13.2091 25 15 26.7909 15 29M27 29H15M27 29C27 31.2091 28.7909 33 31 33C33.2091 33 35 31.2091 35 29M27 29C27 26.7909 28.7909 25 31 25C33.2091 25 35 26.7909 35 29M35 29H39C39.5304 29 40.0391 28.7893 40.4142 28.4142C40.7893 28.0391 41 27.5304 41 27V19.7C40.9992 19.2461 40.844 18.806 40.56 18.452L33.6 9.752C33.4129 9.51776 33.1756 9.32856 32.9056 9.1984C32.6356 9.06823 32.3398 9.00043 32.04 9H25" stroke="#515050" stroke-width="2" stroke-linecap="round" stroke-linejoin="round"/>
</svg>
