<svg xmlns="http://www.w3.org/2000/svg" viewBox="0 0 1085.99 1059.1"><defs><style>.cls-1{fill:#e62346;}.cls-2{fill:#fff;}</style></defs><g id="Слой_2" data-name="Слой 2"><g id="Слой_1-2" data-name="Слой 1"><path class="cls-1" d="M1086,537c-2.44,8.73-3.77,18-7.55,26.09-8.33,17.87-17.3,35.49-27.09,52.6-11.23,19.6-13.94,40.3-12.25,62.38a542,542,0,0,1,1.64,54.21c-.55,23.62-11.14,43.07-29,58.1A436.86,436.86,0,0,1,972,820.62C947.13,837,930.25,858.86,921,887.2c-3.76,11.57-9.42,22.6-14.91,33.52-14.76,29.34-39.33,45.4-71.12,51.12-14.2,2.55-28.46,4.79-42.73,7-23.65,3.62-42.27,16.2-59.12,32.34-8.44,8.1-17.54,15.52-26.37,23.22-26.83,23.42-57.45,29.8-91.62,20.38-14.44-4-29.07-7.33-43.37-11.76-22.18-6.87-43.89-5.25-65.82,1.22-17,5-34,9.94-51.37,13.3-25.27,4.9-48.39-1.7-68.5-17.53-11.91-9.38-23.73-19.1-34.24-30-18.73-19.35-41.43-29.19-67.66-32.79-15.18-2.08-30.34-4.75-45.23-8.33-28.51-6.86-48.72-24.64-61.27-50.73-8-16.6-14.45-33.94-21.8-50.86a96.07,96.07,0,0,0-35.07-41.94C109.92,818,99.27,810.22,88.24,803,53,780,40.78,746.66,44.1,706.14c1.2-14.58,2.69-29.16,3.29-43.77.69-16.71-4.4-32-12.76-46.42-7.71-13.28-15-26.81-22.32-40.3-17.62-32.41-15.74-64.43,1.93-96.19,7.55-13.58,14.43-27.53,22.2-41,10.22-17.68,11-36.7,9.94-56.34-1-18.6-2.07-37.26-1.63-55.85C45.32,302.45,56.35,283,74.51,268c14.38-11.86,29.32-23.12,44.66-33.7,21.88-15.09,35.67-35.52,44.41-60.28,4.55-12.87,10.52-25.32,16.8-37.47,15.13-29.29,40.5-44.21,72.17-49.72,14.93-2.6,29.91-4.95,44.83-7.61,17.77-3.18,32.95-11.37,46.2-23.64,11.55-10.69,23.5-21,35.51-31.13,21.34-18.06,45.52-28,73.89-23.2,13.1,2.22,25.91,6.15,38.88,9.2,14.75,3.48,29.38,7.88,44.33,10,17.52,2.45,34.31-3.11,51.1-7.86,16-4.51,32.08-8.76,48.4-11.51,22.2-3.75,42.78,2.45,60.4,15.92a538.89,538.89,0,0,1,43.48,37.72c16.56,15.72,36.47,23,58.37,26.66,16.38,2.72,32.9,5.05,49,9,27.78,6.81,47.73,24.17,60.26,49.6,6.77,13.74,12.66,28,18,42.31,9.44,25.23,26,43.95,48.77,58.05a344.63,344.63,0,0,1,37.2,27.13c23.9,19.66,31.11,46.58,30.41,76.13-.37,15.7-2,31.39-3.29,47.06a84.71,84.71,0,0,0,11.41,50.51c5.11,8.87,9.89,17.93,15.07,26.76,10.06,17.14,18,35.08,21.19,54.84ZM76.75,725.57c-2.15,17.95,8.13,35.78,27.12,49.36,8.92,6.39,17.72,13,27,18.89,19.65,12.56,37.71,26.64,48.5,48,4.6,9.14,9,18.4,13.24,27.7C199.16,884,205,898.86,212.19,913c6.93,13.49,18.56,22,33.51,25.33,16.05,3.53,32.15,6.86,48.33,9.76,31.47,5.65,58.8,18.7,81.76,41.53,10.81,10.75,23.7,19.49,36,28.61a41.45,41.45,0,0,0,34.43,7.2c16.05-3.48,32.23-6.77,47.85-11.74,30.94-9.85,61.6-11.34,92.64-1,12.47,4.16,25.12,7.78,37.73,11.48,21.42,6.29,41,2.37,58.33-11.53q15.83-12.69,30.75-26.49c19.46-18,41.38-31.32,67.65-36.52,14.87-2.94,29.76-6,44.78-8,26.14-3.47,44.25-16.78,54.16-41.31,5.34-13.21,11.17-26.22,16.47-39.45,9.75-24.29,25-43.9,47-58.55,14.12-9.46,27.72-19.74,41.23-30.08,10.33-7.92,19.11-17.48,21.62-30.76a117.68,117.68,0,0,0,1.75-24.52c-.41-16.27-1.93-32.51-2.36-48.77a123.3,123.3,0,0,1,15.75-64.75c8-14.34,15.41-29.06,23-43.65,9.59-18.44,10.19-37.17,1-55.88-4.9-10-9.73-20.16-15.83-29.43-17.83-27.11-25.8-56.63-24-88.95,1-17.16,2-34.33,2.33-51.51.25-14.39-4.87-27.27-15.94-36.57-12-10.09-24.37-20-37.67-28.26-25.17-15.64-44.79-35.64-56.07-63.36-5.65-13.87-11.85-27.52-17.39-41.43-9.94-25-27.6-39.65-54.64-43.05-11.58-1.46-23-4.44-34.48-6.42-32.72-5.62-60.77-19.67-84.3-43.54-9.92-10.07-22.1-18-33.54-26.49-10.76-8-23.22-10-36-7.23-16.23,3.47-32.49,7.13-48.32,12.06-30.25,9.44-60.26,10.68-90.55.63-11.27-3.74-22.68-7-34-10.66C440.92,32,419,36.05,399.47,52.55c-8.51,7.21-17.13,14.33-25.22,22-18.91,17.93-40,32-65.78,37.72-14.62,3.22-29.35,6.43-44.21,8-31.14,3.35-51.6,19.28-61.9,48.77-2.94,8.45-6.77,16.58-10,24.94-11,28.79-28,52.64-54.48,69.54-14.15,9-27.39,19.56-40.6,30-10.84,8.54-18,19.73-19.55,33.78a129.13,129.13,0,0,0-.55,19.17c.64,16.08,2,32.14,2.41,48.22.72,24.54-5.52,47.28-17.82,68.63-8.2,14.24-15.46,29-22.67,43.81-7.84,16.06-8,32.64-.49,48.77a344.87,344.87,0,0,0,19,35.78c15,24.15,23,50.06,22,78.54C79.05,686.67,78,703.1,76.75,725.57Z"/><path class="cls-2" d="M76.75,725.57c1.2-22.47,2.3-38.9,2.9-55.35,1-28.48-7-54.39-22-78.54a344.87,344.87,0,0,1-19-35.78c-7.55-16.13-7.35-32.71.49-48.77,7.21-14.78,14.47-29.57,22.67-43.81C74.1,442,80.34,419.23,79.62,394.69c-.46-16.08-1.77-32.14-2.41-48.22a129.13,129.13,0,0,1,.55-19.17c1.53-14.05,8.71-25.24,19.55-33.78,13.21-10.41,26.45-20.93,40.6-30,26.49-16.9,43.46-40.75,54.48-69.54,3.2-8.36,7-16.49,10-24.94,10.3-29.49,30.76-45.42,61.9-48.77,14.86-1.6,29.59-4.81,44.21-8,25.78-5.69,46.87-19.79,65.78-37.72,8.09-7.67,16.71-14.79,25.22-22C419,36.05,440.92,32,465.19,39.73c11.31,3.62,22.72,6.92,34,10.66,30.29,10,60.3,8.81,90.55-.63,15.83-4.93,32.09-8.59,48.32-12.06,12.82-2.75,25.28-.77,36,7.23,11.44,8.51,23.62,16.42,33.54,26.49,23.53,23.87,51.58,37.92,84.3,43.54,11.52,2,22.9,5,34.48,6.42,27,3.4,44.7,18.07,54.64,43.05,5.54,13.91,11.74,27.56,17.39,41.43,11.28,27.72,30.9,47.72,56.07,63.36,13.3,8.26,25.67,18.17,37.67,28.26,11.07,9.3,16.19,22.18,15.94,36.57-.31,17.18-1.36,34.35-2.33,51.51-1.82,32.32,6.15,61.84,24,88.95,6.1,9.27,10.93,19.43,15.83,29.43,9.16,18.71,8.56,37.44-1,55.88-7.6,14.59-15,29.31-23,43.65a123.3,123.3,0,0,0-15.75,64.75c.43,16.26,2,32.5,2.36,48.77a117.68,117.68,0,0,1-1.75,24.52c-2.51,13.28-11.29,22.84-21.62,30.76-13.51,10.34-27.11,20.62-41.23,30.08-21.91,14.65-37.2,34.26-47,58.55-5.3,13.23-11.13,26.24-16.47,39.45-9.91,24.53-28,37.84-54.16,41.31-15,2-29.91,5-44.78,8-26.27,5.2-48.19,18.51-67.65,36.52q-14.89,13.77-30.75,26.49c-17.33,13.9-36.91,17.82-58.33,11.53-12.61-3.7-25.26-7.32-37.73-11.48-31-10.37-61.7-8.88-92.64,1-15.62,5-31.8,8.26-47.85,11.74a41.45,41.45,0,0,1-34.43-7.2c-12.34-9.12-25.23-17.86-36-28.61-23-22.83-50.29-35.88-81.76-41.53-16.18-2.9-32.28-6.23-48.33-9.76C230.75,935,219.12,926.46,212.19,913c-7.24-14.11-13-29-19.62-43.4-4.25-9.3-8.64-18.56-13.24-27.7-10.79-21.41-28.85-35.49-48.5-48-9.24-5.91-18-12.5-27-18.89C84.88,761.35,74.6,743.52,76.75,725.57ZM967.87,357c1.28-21.88-7.87-38.51-25.28-50.78-11.5-8.11-23.35-15.75-35.36-23.1-19-11.6-32.78-27.17-40.13-48.37-4.79-13.81-10-27.49-15.18-41.14-8-20.95-22.68-34.23-45.14-37.93-12.25-2-24.56-3.95-36.92-5.11-24.11-2.28-45.42-10.08-62.73-27.85-11-11.26-22.4-22.14-34.37-32.31C657.33,77.32,639.25,72.49,619.42,78c-16,4.42-31.81,9.59-47.58,14.82-19.44,6.44-38.73,6.6-58.13,0-11.75-4-23.65-7.63-35.36-11.8-27.71-9.87-52.15-5-73.28,15.67-8.12,7.93-16.43,15.66-24.33,23.81-16.27,16.8-35.57,27.06-59.11,29.28C308.35,151,295.13,152.92,282,155c-23.07,3.59-40,15.47-48.73,37.64-4.54,11.55-9,23.17-12.56,35.05-7.4,24.91-21.84,44-44.5,56.78-3.66,2.06-7.24,4.31-10.72,6.66-8.79,5.93-17.82,11.57-26.19,18.05-15.17,11.73-22.91,27.47-22,46.74a361.25,361.25,0,0,0,3.84,38.72c3.93,24.69.73,47.63-13.47,68.72-6.74,10-12.8,20.47-19.11,30.76C74.2,517.49,73.9,541,88.27,564.51c6.29,10.3,12.43,20.71,19,30.8,11.65,17.75,17.37,37,15.23,58.25-.8,8-1.8,16-2.51,24q-1.12,12.84-1.89,25.71c-1.25,20.77,7.06,37.11,23.85,49,12.24,8.64,24.76,16.95,37.58,24.71,19.71,11.93,32.57,28.88,39.95,50.5q7,20.49,15.14,40.56c7.7,19,21.41,31.31,41.88,34.9,14.57,2.56,29.24,4.6,43.94,6.31,20.78,2.42,39.41,9.25,54.51,24.29,7.65,7.62,15.28,15.27,23.21,22.6A218,218,0,0,0,417.07,972c13.52,9.88,28.89,13.85,45.19,9.81S495,972.62,511,967.13c21.07-7.22,41.82-7.56,62.85-.16,13.27,4.67,26.68,9,40.15,13,23,7,43.84,2.48,61.79-13.59,9.27-8.29,18.28-16.91,26.94-25.83,16.31-16.81,35.13-28.42,58.93-30.93,12.72-1.33,25.4-3.14,38.1-4.75,26.73-3.4,45.39-17.06,54.52-42.86,2.08-5.86,4.22-11.69,6.28-17.55,2.18-6.21,4.44-12.4,6.4-18.68,6.8-21.86,20.75-37.75,40-49.68,13.51-8.36,26.93-17,39.62-26.55,15-11.25,22.45-26.92,21.53-45.78a396.61,396.61,0,0,0-3.9-39.82c-3.59-23.86-.92-46.22,12.77-66.74,6.8-10.18,13-20.79,19.42-31.21,14.9-24.07,15.32-48.18.28-72.39-7.24-11.65-14.33-23.4-21.6-35-11.18-17.87-14.19-37.29-11.71-57.95C965.13,386.14,966.4,371.57,967.87,357Z"/><path class="cls-1" d="M967.87,357c-1.47,14.55-2.74,29.12-4.48,43.64-2.48,20.66.53,40.08,11.71,57.95,7.27,11.63,14.36,23.38,21.6,35,15,24.21,14.62,48.32-.28,72.39-6.45,10.42-12.62,21-19.42,31.21-13.69,20.52-16.36,42.88-12.77,66.74a396.61,396.61,0,0,1,3.9,39.82c.92,18.86-6.56,34.53-21.53,45.78-12.69,9.55-26.11,18.19-39.62,26.55-19.28,11.93-33.23,27.82-40,49.68-2,6.28-4.22,12.47-6.4,18.68-2.06,5.86-4.2,11.69-6.28,17.55-9.13,25.8-27.79,39.46-54.52,42.86-12.7,1.61-25.38,3.42-38.1,4.75-23.8,2.51-42.62,14.12-58.93,30.93-8.66,8.92-17.67,17.54-26.94,25.83C657.83,982.48,637,987,614,980c-13.47-4.07-26.88-8.36-40.15-13-21-7.4-41.78-7.06-62.85.16-16,5.49-32.28,10.61-48.73,14.67s-31.67.07-45.19-9.81a218,218,0,0,1-18.86-15.89c-7.93-7.33-15.56-15-23.21-22.6-15.1-15-33.73-21.87-54.51-24.29-14.7-1.71-29.37-3.75-43.94-6.31-20.47-3.59-34.18-15.95-41.88-34.9q-8.14-20-15.14-40.56c-7.38-21.62-20.24-38.57-39.95-50.5-12.82-7.76-25.34-16.07-37.58-24.71-16.79-11.84-25.1-28.18-23.85-49q.78-12.87,1.89-25.71c.71-8,1.71-16,2.51-24,2.14-21.3-3.58-40.5-15.23-58.25-6.62-10.09-12.76-20.5-19-30.8-14.37-23.53-14.07-47,.29-70.43,6.31-10.29,12.37-20.76,19.11-30.76,14.2-21.09,17.4-44,13.47-68.72a361.25,361.25,0,0,1-3.84-38.72c-1-19.27,6.78-35,22-46.74,8.37-6.48,17.4-12.12,26.19-18.05,3.48-2.35,7.06-4.6,10.72-6.66,22.66-12.81,37.1-31.87,44.5-56.78,3.52-11.88,8-23.5,12.56-35.05,8.7-22.17,25.66-34,48.73-37.64,13.18-2,26.4-4,39.68-5.25,23.54-2.22,42.84-12.48,59.11-29.28,7.9-8.15,16.21-15.88,24.33-23.81C426.2,76,450.64,71.08,478.35,81c11.71,4.17,23.61,7.78,35.36,11.8,19.4,6.64,38.69,6.48,58.13,0,15.77-5.23,31.58-10.4,47.58-14.82,19.83-5.48,37.91-.65,53.34,12.46,12,10.17,23.41,21,34.37,32.31,17.31,17.77,38.62,25.57,62.73,27.85,12.36,1.16,24.67,3.08,36.92,5.11,22.46,3.7,37.13,17,45.14,37.93,5.22,13.65,10.39,27.33,15.18,41.14,7.35,21.2,21.18,36.77,40.13,48.37,12,7.35,23.86,15,35.36,23.1C960,318.51,969.15,335.14,967.87,357ZM639.56,785.46v-.09c9.15,0,18.32.25,27.46,0,32.88-1,62.06-25.39,67.41-57.84,2.24-13.58.75-27.74,1.7-41.58,1.64-23.85-5.57-45.16-17.86-65-29.95-48.39-70.44-85.69-120.4-112.67-16.5-8.9-34-15.43-53-16.4-21-1.06-40,5.87-58.14,15.46-46.23,24.48-83.17,59.4-112.62,102.34-11.21,16.36-21.36,33.82-23.46,53.82-1.88,17.93-1.45,36.19-.93,54.27,1,33.41,27.81,63,61.16,66.52,17,1.8,34.35,1,51.54,1.19,18,.16,26-8,26-26.21q0-59.87,0-119.72c0-12.72,8.08-21,20.84-21.15,20-.18,39.92-.2,59.87.1a23.92,23.92,0,0,1,10.85,3c7.47,4.17,9.75,11.24,9.73,19.52q-.15,60.42,0,120.83c0,14.91,8.7,23.54,23.54,23.62C622,785.5,630.77,785.46,639.56,785.46Zm72.24-424c-.13-27.37-4.54-48.3-18.12-66.23-13.77-18.17-32-26.79-55.09-23.08-13.34,2.15-24.87,8.38-35.11,17-19.85,16.66-32.22,38.16-39.16,62.8-8.27,29.36-8.67,58.58,4.9,86.7C579.43,459.77,595.5,473.7,620,475c19,1,35-6.83,48.74-19.18C698.21,429.29,710.4,395,711.8,361.44Zm-189,25.47c-.48-4.09-.92-12.34-2.45-20.39-5.84-30.73-19-57.66-43.69-77.65C458.5,274.2,438,267.05,414.82,275.36c-20.13,7.21-31.79,22.88-38.61,42.26-11.44,32.54-7.79,64.54,5.48,95.65,9.93,23.27,24.93,42.59,47.65,54.85,28.28,15.25,58.6,8,76.86-18.34C518.41,432.15,522.5,412.12,522.77,386.91Zm315.65,83.43c.65-41.56-29-65.79-65.76-58.14-27.73,5.77-48.94,21.52-65.39,44-14.72,20.08-22.9,42.3-20.32,67.73a50,50,0,0,0,46.61,45.32c21.75,1.44,40.76-5.88,57.72-18.64C819.42,529.38,836.54,501.77,838.42,470.34ZM243.7,465.09c.09,44.77,39.81,92.81,84.23,101.85,20.4,4.16,39.27,1.61,54-14.42,13.75-14.94,16.16-33.35,12.5-52.45-6.54-34.18-26.11-59.49-55.47-77.41-15.54-9.48-32.49-14-50.85-12.07C261.94,413.36,243.63,435.84,243.7,465.09Z"/><path class="cls-2" d="M639.56,785.46c-8.79,0-17.57,0-26.36,0-14.84-.08-23.52-8.71-23.54-23.62q-.09-60.42,0-120.83c0-8.28-2.26-15.35-9.73-19.52a23.92,23.92,0,0,0-10.85-3c-20-.3-39.91-.28-59.87-.1-12.76.11-20.82,8.43-20.84,21.15q-.06,59.87,0,119.72c0,18.16-8,26.37-26,26.21-17.19-.15-34.51.61-51.54-1.19-33.35-3.54-60.2-33.11-61.16-66.52-.52-18.08-.95-36.34.93-54.27,2.1-20,12.25-37.46,23.46-53.82,29.45-42.94,66.39-77.86,112.62-102.34,18.1-9.59,37.15-16.52,58.14-15.46,19,1,36.53,7.5,53,16.4,50,27,90.45,64.28,120.4,112.67,12.29,19.86,19.5,41.17,17.86,65-1,13.84.54,28-1.7,41.58-5.35,32.45-34.53,56.8-67.41,57.84-9.14.29-18.31,0-27.46,0Z"/><path class="cls-2" d="M711.8,361.44c-1.4,33.57-13.59,67.85-43.11,94.42C655,468.21,638.93,476.07,620,475c-24.45-1.34-40.52-15.27-50.73-36.43-13.57-28.12-13.17-57.34-4.9-86.7,6.94-24.64,19.31-46.14,39.16-62.8,10.24-8.6,21.77-14.83,35.11-17,23.07-3.71,41.32,4.91,55.09,23.08C707.26,313.14,711.67,334.07,711.8,361.44Z"/><path class="cls-2" d="M522.77,386.91c-.27,25.21-4.36,45.24-16.57,62.87-18.26,26.35-48.58,33.59-76.86,18.34-22.72-12.26-37.72-31.58-47.65-54.85-13.27-31.11-16.92-63.11-5.48-95.65,6.82-19.38,18.48-35.05,38.61-42.26,23.22-8.31,43.68-1.16,61.81,13.51,24.72,20,37.85,46.92,43.69,77.65C521.85,374.57,522.29,382.82,522.77,386.91Z"/><path class="cls-2" d="M838.42,470.34c-1.88,31.43-19,59-47.14,80.23-17,12.76-36,20.08-57.72,18.64A50,50,0,0,1,687,523.89c-2.58-25.43,5.6-47.65,20.32-67.73,16.45-22.44,37.66-38.19,65.39-44C809.41,404.55,839.07,428.78,838.42,470.34Z"/><path class="cls-2" d="M243.7,465.09c-.07-29.25,18.24-51.73,44.43-54.5,18.36-1.95,35.31,2.59,50.85,12.07,29.36,17.92,48.93,43.23,55.47,77.41,3.66,19.1,1.25,37.51-12.5,52.45-14.75,16-33.62,18.58-54,14.42C283.51,557.9,243.79,509.86,243.7,465.09Z"/></g></g></svg>