<svg width="26" height="42" viewBox="0 0 26 42" fill="none" xmlns="http://www.w3.org/2000/svg">
<path d="M19.954 22.7807L22.984 39.8333C23.0179 40.0341 22.9898 40.2405 22.9032 40.4248C22.8167 40.6092 22.676 40.7627 22.4999 40.8649C22.3237 40.9671 22.1206 41.0131 21.9176 40.9968C21.7146 40.9804 21.5215 40.9024 21.364 40.7733L14.204 35.3992C13.8583 35.1409 13.4385 35.0014 13.007 35.0014C12.5755 35.0014 12.1557 35.1409 11.81 35.3992L4.638 40.7713C4.48064 40.9002 4.28772 40.978 4.08499 40.9944C3.88226 41.0108 3.67934 40.965 3.50333 40.8631C3.32731 40.7612 3.18655 40.608 3.09984 40.424C3.01312 40.24 2.98457 40.0339 3.018 39.8333L6.046 22.7807M25 13.0004C25 19.628 19.6274 25.0008 13 25.0008C6.37258 25.0008 1 19.628 1 13.0004C1 6.37276 6.37258 1 13 1C19.6274 1 25 6.37276 25 13.0004Z" stroke="#515050" stroke-width="2" stroke-linecap="round" stroke-linejoin="round"/>
</svg>
