<svg width="36" height="42" viewBox="0 0 36 42" fill="none" xmlns="http://www.w3.org/2000/svg">
<path d="M35 11H29C27.9391 11 26.9217 10.5786 26.1716 9.82843C25.4214 9.07828 25 8.06087 25 7V1M1 12.2V37.8C1 38.6487 1.33714 39.4626 1.93726 40.0627C2.53737 40.6629 3.35131 41 4.2 41H23.8M13 33C11.9391 33 10.9217 32.5786 10.1716 31.8284C9.42143 31.0783 9 30.0609 9 29V5C9 3.93913 9.42143 2.92172 10.1716 2.17157C10.9217 1.42143 11.9391 1 13 1H27L35 9V29C35 30.0609 34.5786 31.0783 33.8284 31.8284C33.0783 32.5786 32.0609 33 31 33H13Z" stroke="#515050" stroke-width="2" stroke-linecap="round" stroke-linejoin="round"/>
</svg>
