<svg width="37" height="37" viewBox="0 0 37 37" fill="none" xmlns="http://www.w3.org/2000/svg">
<path d="M9.82501 15V36M23.945 7.79L22.18 15H32.47C33.018 15 33.5585 15.1265 34.0487 15.3695C34.5388 15.6125 34.9652 15.9653 35.294 16.4C35.6228 16.8347 35.845 17.3393 35.9431 17.8739C36.0411 18.4085 36.0122 18.9584 35.8588 19.48L31.7463 33.48C31.5325 34.207 31.0866 34.8456 30.4755 35.3C29.8645 35.7544 29.1213 36 28.3575 36H4.53C3.59379 36 2.69592 35.6313 2.03391 34.9749C1.37191 34.3185 1 33.4283 1 32.5V18.5C1 17.5717 1.37191 16.6815 2.03391 16.0251C2.69592 15.3687 3.59379 15 4.53 15H9.40141C10.0581 14.9997 10.7018 14.8177 11.2599 14.4745C11.818 14.1314 12.2685 13.6406 12.5608 13.0575L18.65 1C19.4824 1.01022 20.3016 1.2068 21.0466 1.57504C21.7915 1.94329 22.4429 2.47369 22.9521 3.1266C23.4612 3.77952 23.815 4.53808 23.9869 5.3456C24.1589 6.15313 24.1446 6.98874 23.945 7.79Z" stroke="#FB61E3" stroke-width="2" stroke-linecap="round" stroke-linejoin="round"/>
</svg>
