<svg width="295" height="63" viewBox="0 0 295 63" fill="none" xmlns="http://www.w3.org/2000/svg">
<g clip-path="url(#clip0_3_164)">
<path fill-rule="evenodd" clip-rule="evenodd" d="M13.8501 0.0594246C14.5153 0.185933 15.059 0.518278 15.4881 0.933868C16.0313 1.46008 16.5652 2.21151 16.4439 3.27409C16.3497 4.09875 15.861 4.88864 15.3651 5.60935C13.2506 8.70897 12.2466 12.0788 12.4164 15.2293L12.4167 15.2346L12.4169 15.2399C12.509 17.2155 12.7302 18.1997 14.0285 21.9447C14.8418 24.2867 15.3488 25.9942 15.5743 27.5465C15.8056 29.1388 15.7325 30.5067 15.4778 32.1664L15.4775 32.1679L15.4773 32.1695C15.2643 33.5374 14.8865 34.9138 14.4335 36.0633C14.2069 36.6383 13.9523 37.18 13.6758 37.6464C13.4131 38.0894 13.075 38.5607 12.647 38.9083C12.0541 39.3924 11.3012 39.6831 10.4788 39.6351C9.66238 39.5874 8.9535 39.2166 8.41226 38.6923C7.89759 38.1938 7.53195 37.5516 7.46075 36.7968C7.39064 36.0535 7.62094 35.3613 7.99336 34.7709L7.9953 34.7679L7.99725 34.7648C8.71646 33.6369 9.22418 31.7194 9.2513 29.5394L9.25132 29.5378L9.25134 29.5362C9.26484 28.6144 9.221 28.0082 9.04952 27.26C8.86784 26.4672 8.53617 25.4847 7.91474 23.8134L7.91409 23.8117L7.91345 23.8099C6.50401 19.9901 6 17.6659 6 14.5454C6 11.5711 6.6182 8.82633 7.87692 5.9964L7.87773 5.99458L7.87855 5.99276C8.41578 4.79357 9.10776 3.55392 9.7578 2.56877C10.7006 1.14 11.8854 -0.31418 13.8501 0.0594246Z" fill="#2D90A5"/>
<path d="M33.3379 4.88985C30.2806 5.57147 27.6601 7.45179 26.641 9.68466C25.9373 11.1889 25.7917 13.7508 26.3013 15.4196C26.8108 17.1824 28.388 18.8512 30.2564 19.6738C31.1299 20.0499 33.2409 20.567 35.6916 20.9901C37.8996 21.3661 40.1805 21.8597 40.7385 22.0947C44.0627 23.364 43.4804 27.4301 39.8408 28.4408C38.0209 28.9579 35.2305 28.7934 33.6291 28.0413C32.4159 27.5007 31.0571 25.9964 31.0571 25.1973C31.0571 24.7977 30.8144 24.7742 27.9998 24.7742H24.9182L25.0638 25.6909C25.3792 28.1118 27.3689 30.7677 29.7711 32.0134C32.2703 33.2826 33.7262 33.5882 37.3658 33.5647C40.1319 33.5647 40.8841 33.4707 42.2187 33.0241C45.3488 31.9664 47.3627 30.2506 48.309 27.8532C48.7215 26.772 48.7943 26.1374 48.7215 24.3041C48.6487 22.3768 48.5274 21.9067 47.9208 20.8255C46.5134 18.3341 44.451 17.2999 38.8945 16.2893C33.0468 15.2551 31.9549 14.691 31.9549 12.7872C31.9549 10.8833 33.5078 9.70817 36.2496 9.54364C39.1371 9.37911 41.1268 10.2487 41.879 12.0115L42.2187 12.7872H45.1304C48.0178 12.7872 48.0421 12.7872 48.0421 12.2466C48.0421 11.3299 47.3384 9.66116 46.4649 8.50947C45.4458 7.16974 43.6017 5.92403 41.6121 5.24241C39.7194 4.6078 35.4732 4.41977 33.3379 4.88985Z" fill="white"/>
<path d="M100.453 18.8984V33.2358H103.244H106.034V18.8984V4.56104H103.244H100.453V18.8984Z" fill="white"/>
<path d="M111.13 6.91095V9.26135H114.042H116.953V6.91095V4.56055H114.042H111.13V6.91095Z" fill="white"/>
<path d="M146.316 18.8984V33.2358H149.107H151.897V18.8984V4.56104H149.107H146.316V18.8984Z" fill="white"/>
<path d="M206.728 6.91095V9.26135H209.639H212.551V6.91095V4.56055H209.639H206.728V6.91095Z" fill="white"/>
<path d="M58.912 12.9984C57.1407 13.5625 56.0974 14.1971 54.8841 15.4664C52.943 17.5112 52.1665 19.6971 52.1665 23.1522C52.1665 25.8081 52.7003 27.8295 53.8893 29.5688C58.0142 35.5858 69.0788 34.8336 71.578 28.3936C72.3544 26.3487 72.4272 26.4192 69.3457 26.4192H66.6038L66.1913 27.3594C65.4634 29.0517 62.6972 29.7568 60.5135 28.7931C58.6936 27.994 57.7473 26.0432 57.7473 23.0581C57.7473 20.7783 58.0628 19.6736 59.0333 18.5219C59.9554 17.4642 60.9987 17.0176 62.6487 17.0176C64.2744 17.0176 65.5119 17.6052 65.9972 18.5924L66.3612 19.368H69.103C71.7721 19.368 71.8206 19.368 71.8206 18.8274C71.8206 17.9813 70.7287 15.9835 69.7582 15.0198C69.2486 14.5262 68.1082 13.7976 67.2347 13.398C65.7788 12.7399 65.3663 12.6694 62.9642 12.6224C60.8774 12.5754 60.0039 12.6459 58.912 12.9984Z" fill="white"/>
<path d="M81.8648 13.0444C79.0016 13.914 76.7936 15.9118 75.6531 18.6618C75.1679 19.7665 75.0951 20.3776 75.0951 23.1276C75.0951 26.2536 75.1193 26.3241 75.92 27.9929C77.9097 32.1061 82.3744 34.2449 87.4456 33.5398C93.0264 32.7642 96.3021 29.0036 96.3749 23.3391C96.4234 17.8627 93.7786 14.1255 88.95 12.8798C87.1302 12.4098 83.6604 12.4803 81.8648 13.0444ZM88.1007 17.5571C90.5514 18.8263 91.5948 22.9395 90.3088 26.2066C89.6294 27.8989 87.6154 29.2151 85.6986 29.2386C82.5442 29.2386 80.5545 26.9352 80.5545 23.2216C80.5545 22.1169 80.7001 20.8947 80.9185 20.2601C81.3553 19.0614 82.4957 17.8157 83.5876 17.3456C84.7765 16.8285 86.8633 16.946 88.1007 17.5571Z" fill="white"/>
<path d="M127.802 13.0454C125.958 13.6565 124.842 14.3616 123.58 15.6778C122.319 16.9941 121.663 18.2163 121.202 20.1201C120.232 24.1393 121.251 28.2055 123.871 30.7909C128.215 35.0451 136.634 34.5515 140.298 29.8272C143.259 26.0196 143.04 19.2974 139.813 15.7013C138.867 14.6437 136.998 13.492 135.494 13.0219C133.31 12.3873 129.768 12.3873 127.802 13.0454ZM133.917 17.4876C135.979 18.4983 137.023 20.7547 136.78 23.7397C136.61 25.9256 135.761 27.5943 134.378 28.464C133.504 29.0281 133.116 29.1221 131.636 29.1221C130.156 29.1221 129.768 29.0281 128.894 28.464C125.449 26.2781 125.691 19.3445 129.258 17.5111C130.496 16.8765 132.679 16.853 133.917 17.4876Z" fill="white"/>
<path d="M162.96 13.0218C158.301 14.4555 155.778 18.4982 156.093 23.9511C156.409 29.5686 159.975 33.1412 165.75 33.6347C170.409 34.0343 174.461 32.06 176.281 28.4639C177.858 25.3613 177.98 21.7652 176.645 18.3572C175.65 15.7717 172.787 13.4683 169.827 12.8102C168.08 12.4107 164.561 12.5282 162.96 13.0218ZM169.026 17.464C171.816 18.6862 172.86 23.2225 171.161 26.6071C170.336 28.2288 169.172 29.0045 167.23 29.169C163.809 29.4745 161.601 27.0536 161.601 22.9874C161.601 20.3785 162.693 18.3572 164.634 17.3935C165.629 16.8764 167.789 16.9234 169.026 17.464Z" fill="white"/>
<path d="M186.175 13.0218C181.25 14.9256 178.993 21.6008 181.274 27.5003C182.026 29.4276 184.234 31.59 186.224 32.2951C188.311 33.0472 191.586 32.9062 193.139 32.013C193.746 31.6605 194.425 31.1669 194.668 30.8848C194.91 30.6028 195.299 30.4148 195.517 30.4618C195.857 30.5323 195.93 30.8378 195.93 32.3186C195.905 35.5856 194.231 37.2309 190.931 37.2309C188.917 37.2074 187.389 36.5728 187 35.5856L186.733 34.8805H183.992C181.298 34.8805 181.25 34.8805 181.25 35.3976C181.25 35.7032 181.492 36.4083 181.759 36.9959C183.094 39.8634 186.418 41.4616 191.077 41.4616C195.833 41.4616 199.157 39.6518 200.831 36.1732L201.51 34.763L201.583 23.8807L201.656 13.0218H198.963H196.294V13.962C196.294 14.7846 196.221 14.9021 195.735 14.9021C195.42 14.9021 194.91 14.6201 194.571 14.291C193.455 13.1158 192.241 12.6928 189.742 12.6222C187.874 12.5517 187.194 12.6458 186.175 13.0218ZM193.358 17.4876C193.867 17.7226 194.571 18.2632 194.91 18.6628C195.638 19.4854 196.294 21.3892 196.294 22.6584C196.294 23.9277 195.638 25.8315 194.91 26.6541C193.867 27.8763 192.581 28.3699 190.689 28.2524C189.305 28.1819 188.893 28.0644 188.116 27.4533C186.685 26.3486 186.005 24.8208 186.005 22.6819C186.03 20.0025 186.879 18.4277 188.893 17.4171C189.936 16.8765 192.217 16.9 193.358 17.4876Z" fill="white"/>
<path d="M223.593 12.8816C219.614 14.1508 217.26 16.9478 216.629 21.202C216.071 24.8921 217.042 28.3707 219.274 30.6741C224.394 35.986 234.779 33.9881 236.308 27.3835L236.526 26.4199H233.809H231.115L230.63 27.2895C229.951 28.4882 229.053 29.0523 227.621 29.1933C225.365 29.4049 223.472 28.3002 222.623 26.3259C221.676 24.14 221.992 20.3558 223.278 18.593C224.855 16.4307 229.174 16.4777 230.46 18.6636L230.873 19.3687H233.614H236.381L236.211 18.593C235.725 16.3837 233.663 14.1273 231.261 13.2341C229.562 12.576 225.146 12.388 223.593 12.8816Z" fill="white"/>
<path d="M111.13 23.1292V33.2359H113.92H116.711V23.1292V13.0225H113.92H111.13V23.1292Z" fill="white"/>
<path d="M206.976 23.1292V33.2359H209.645H212.314V23.1292V13.0225H209.645H206.976V23.1292Z" fill="white"/>
<path d="M251.374 23.1293V33.236H254.165H256.955V28.3002C256.955 22.8238 257.149 21.4605 258.168 20.1208C259.163 18.7811 260.667 18.1465 263.288 18.0055L265.448 17.8879V15.42V12.9756L263.215 13.0696C260.765 13.1871 259.818 13.5162 258.508 14.7149C257.392 15.7256 256.858 15.5375 256.761 14.1273L256.688 13.0226H254.019H251.374V23.1293Z" fill="#2D90A5"/>
<path d="M268.409 20.4713C268.53 29.3088 268.628 29.7553 270.617 31.7062C271.685 32.7168 272.146 32.9754 273.505 33.3515C276.392 34.1036 279.765 33.4925 281.196 31.9647C281.56 31.5887 282.046 31.3536 282.482 31.3536C283.113 31.3536 283.162 31.4241 283.162 32.2938V33.2339H285.831H288.5V23.1272V13.0205H285.734H282.943L282.871 19.1786C282.798 25.031 282.774 25.4071 282.264 26.3238C280.905 28.7917 278.066 29.6378 275.737 28.2746C274.184 27.3579 274.063 26.7938 273.99 19.5311L273.917 13.0205H271.127H268.336L268.409 20.4713Z" fill="#2D90A5"/>
<path d="M240.216 30.2979V33.2359H243.249H246.282V30.2979V27.3599H243.249H240.216V30.2979Z" fill="#2D90A5"/>
<path d="M7.42499 59.8686V49.1586H15.585V59.8686H13.98V50.5536H9.04499V59.8686H7.42499ZM21.4553 49.1586C22.8553 49.1586 23.8753 49.4436 24.5153 50.0136C25.1553 50.5736 25.4753 51.3586 25.4753 52.3686C25.4753 52.8186 25.4003 53.2486 25.2503 53.6586C25.1103 54.0686 24.8753 54.4386 24.5453 54.7686C24.2153 55.0886 23.7753 55.3436 23.2253 55.5336C22.6853 55.7136 22.0203 55.8036 21.2303 55.8036H20.0753V59.8686H18.4553V49.1586H21.4553ZM21.3353 50.5236H20.0753V54.4386H21.0503C21.6603 54.4386 22.1703 54.3736 22.5803 54.2436C22.9903 54.1036 23.2953 53.8886 23.4953 53.5986C23.7053 53.2986 23.8103 52.9086 23.8103 52.4286C23.8103 51.7886 23.6103 51.3136 23.2103 51.0036C22.8203 50.6836 22.1953 50.5236 21.3353 50.5236ZM37.0898 54.4986C37.0898 55.3286 36.9848 56.0836 36.7748 56.7636C36.5748 57.4336 36.2648 58.0136 35.8448 58.5036C35.4348 58.9936 34.9148 59.3686 34.2848 59.6286C33.6648 59.8886 32.9398 60.0186 32.1098 60.0186C31.2598 60.0186 30.5198 59.8886 29.8898 59.6286C29.2698 59.3586 28.7498 58.9836 28.3298 58.5036C27.9198 58.0136 27.6148 57.4286 27.4148 56.7486C27.2148 56.0686 27.1148 55.3136 27.1148 54.4836C27.1148 53.3836 27.2948 52.4236 27.6548 51.6036C28.0148 50.7836 28.5648 50.1436 29.3048 49.6836C30.0548 49.2236 30.9948 48.9936 32.1248 48.9936C33.2248 48.9936 34.1398 49.2236 34.8698 49.6836C35.6098 50.1336 36.1648 50.7736 36.5348 51.6036C36.9048 52.4236 37.0898 53.3886 37.0898 54.4986ZM28.8248 54.4986C28.8248 55.3586 28.9398 56.0986 29.1698 56.7186C29.3998 57.3286 29.7598 57.8036 30.2498 58.1436C30.7398 58.4736 31.3598 58.6386 32.1098 58.6386C32.8698 58.6386 33.4898 58.4736 33.9698 58.1436C34.4498 57.8036 34.8048 57.3286 35.0348 56.7186C35.2648 56.0986 35.3798 55.3586 35.3798 54.4986C35.3798 53.2086 35.1198 52.2036 34.5998 51.4836C34.0898 50.7536 33.2648 50.3886 32.1248 50.3886C31.3648 50.3886 30.7398 50.5536 30.2498 50.8836C29.7598 51.2136 29.3998 51.6836 29.1698 52.2936C28.9398 52.9036 28.8248 53.6386 28.8248 54.4986ZM42.5631 59.8686H40.9431V50.5536H37.7331V49.1586H45.7731V50.5536H42.5631V59.8686ZM53.4452 59.8686H47.4152V49.1586H53.4452V50.5386H49.0352V53.5986H53.1752V54.9636H49.0352V58.4736H53.4452V59.8686ZM62.4098 51.6636C62.4098 52.3936 62.1698 52.9736 61.6898 53.4036C61.2198 53.8336 60.5948 54.1036 59.8148 54.2136V54.2736C60.7448 54.3836 61.4498 54.6636 61.9298 55.1136C62.4198 55.5536 62.6648 56.1286 62.6648 56.8386C62.6648 57.4586 62.4998 58.0086 62.1698 58.4886C61.8498 58.9686 61.3648 59.3436 60.7148 59.6136C60.0648 59.8836 59.2548 60.0186 58.2848 60.0186C57.6348 60.0186 57.0298 59.9736 56.4698 59.8836C55.9198 59.7936 55.4198 59.6436 54.9698 59.4336V58.0086C55.2798 58.1586 55.6148 58.2886 55.9748 58.3986C56.3448 58.4986 56.7148 58.5786 57.0848 58.6386C57.4648 58.6886 57.8198 58.7136 58.1498 58.7136C59.1098 58.7136 59.8248 58.5486 60.2948 58.2186C60.7648 57.8786 60.9998 57.3986 60.9998 56.7786C60.9998 56.1486 60.7048 55.6936 60.1148 55.4136C59.5248 55.1236 58.7098 54.9786 57.6698 54.9786H56.2898V53.6586H57.5798C58.3298 53.6586 58.9398 53.5886 59.4098 53.4486C59.8798 53.2986 60.2248 53.0886 60.4448 52.8186C60.6648 52.5486 60.7748 52.2286 60.7748 51.8586C60.7748 51.3686 60.5848 50.9936 60.2048 50.7336C59.8248 50.4636 59.3148 50.3286 58.6748 50.3286C58.0448 50.3286 57.4998 50.4136 57.0398 50.5836C56.5798 50.7436 56.1398 50.9586 55.7198 51.2286L54.9698 50.1336C55.2798 49.9136 55.6248 49.7236 56.0048 49.5636C56.3848 49.3936 56.8048 49.2586 57.2648 49.1586C57.7348 49.0586 58.2398 49.0086 58.7798 49.0086C59.5598 49.0086 60.2198 49.1236 60.7598 49.3536C61.2998 49.5836 61.7098 49.8986 61.9898 50.2986C62.2698 50.6886 62.4098 51.1436 62.4098 51.6636ZM73.2165 59.8686H71.5965V54.9786H66.4815V59.8686H64.8615V49.1586H66.4815V53.5986H71.5965V49.1586H73.2165V59.8686ZM85.5322 54.4986C85.5322 55.3286 85.4272 56.0836 85.2172 56.7636C85.0172 57.4336 84.7072 58.0136 84.2872 58.5036C83.8772 58.9936 83.3572 59.3686 82.7272 59.6286C82.1072 59.8886 81.3822 60.0186 80.5522 60.0186C79.7022 60.0186 78.9622 59.8886 78.3322 59.6286C77.7122 59.3586 77.1922 58.9836 76.7722 58.5036C76.3622 58.0136 76.0572 57.4286 75.8572 56.7486C75.6572 56.0686 75.5572 55.3136 75.5572 54.4836C75.5572 53.3836 75.7372 52.4236 76.0972 51.6036C76.4572 50.7836 77.0072 50.1436 77.7472 49.6836C78.4972 49.2236 79.4372 48.9936 80.5672 48.9936C81.6672 48.9936 82.5822 49.2236 83.3122 49.6836C84.0522 50.1336 84.6072 50.7736 84.9772 51.6036C85.3472 52.4236 85.5322 53.3886 85.5322 54.4986ZM77.2672 54.4986C77.2672 55.3586 77.3822 56.0986 77.6122 56.7186C77.8422 57.3286 78.2022 57.8036 78.6922 58.1436C79.1822 58.4736 79.8022 58.6386 80.5522 58.6386C81.3122 58.6386 81.9322 58.4736 82.4122 58.1436C82.8922 57.8036 83.2472 57.3286 83.4772 56.7186C83.7072 56.0986 83.8222 55.3586 83.8222 54.4986C83.8222 53.2086 83.5622 52.2036 83.0422 51.4836C82.5322 50.7536 81.7072 50.3886 80.5672 50.3886C79.8072 50.3886 79.1822 50.5536 78.6922 50.8836C78.2022 51.2136 77.8422 51.6836 77.6122 52.2936C77.3822 52.9036 77.2672 53.6386 77.2672 54.4986ZM86.9896 56.5236V55.1736H90.7096V56.5236H86.9896ZM102.144 54.4986C102.144 55.3286 102.039 56.0836 101.829 56.7636C101.629 57.4336 101.319 58.0136 100.899 58.5036C100.489 58.9936 99.9686 59.3686 99.3386 59.6286C98.7186 59.8886 97.9936 60.0186 97.1636 60.0186C96.3136 60.0186 95.5736 59.8886 94.9436 59.6286C94.3236 59.3586 93.8036 58.9836 93.3836 58.5036C92.9736 58.0136 92.6686 57.4286 92.4686 56.7486C92.2686 56.0686 92.1686 55.3136 92.1686 54.4836C92.1686 53.3836 92.3486 52.4236 92.7086 51.6036C93.0686 50.7836 93.6186 50.1436 94.3586 49.6836C95.1086 49.2236 96.0486 48.9936 97.1786 48.9936C98.2786 48.9936 99.1936 49.2236 99.9236 49.6836C100.664 50.1336 101.219 50.7736 101.589 51.6036C101.959 52.4236 102.144 53.3886 102.144 54.4986ZM93.8786 54.4986C93.8786 55.3586 93.9936 56.0986 94.2236 56.7186C94.4536 57.3286 94.8136 57.8036 95.3036 58.1436C95.7936 58.4736 96.4136 58.6386 97.1636 58.6386C97.9236 58.6386 98.5436 58.4736 99.0236 58.1436C99.5036 57.8036 99.8586 57.3286 100.089 56.7186C100.319 56.0986 100.434 55.3586 100.434 54.4986C100.434 53.2086 100.174 52.2036 99.6536 51.4836C99.1436 50.7536 98.3186 50.3886 97.1786 50.3886C96.4186 50.3886 95.7936 50.5536 95.3036 50.8836C94.8136 51.2136 94.4536 51.6836 94.2236 52.2936C93.9936 52.9036 93.8786 53.6386 93.8786 54.4986ZM107.471 49.1586C108.871 49.1586 109.891 49.4436 110.531 50.0136C111.171 50.5736 111.491 51.3586 111.491 52.3686C111.491 52.8186 111.416 53.2486 111.266 53.6586C111.126 54.0686 110.891 54.4386 110.561 54.7686C110.231 55.0886 109.791 55.3436 109.241 55.5336C108.701 55.7136 108.036 55.8036 107.246 55.8036H106.091V59.8686H104.471V49.1586H107.471ZM107.351 50.5236H106.091V54.4386H107.066C107.676 54.4386 108.186 54.3736 108.596 54.2436C109.006 54.1036 109.311 53.8886 109.511 53.5986C109.721 53.2986 109.826 52.9086 109.826 52.4286C109.826 51.7886 109.626 51.3136 109.226 51.0036C108.836 50.6836 108.211 50.5236 107.351 50.5236ZM117.255 59.8686H115.635V50.5536H112.425V49.1586H120.465V50.5536H117.255V59.8686ZM131.265 54.4986C131.265 55.3286 131.16 56.0836 130.95 56.7636C130.75 57.4336 130.44 58.0136 130.02 58.5036C129.61 58.9936 129.09 59.3686 128.46 59.6286C127.84 59.8886 127.115 60.0186 126.285 60.0186C125.435 60.0186 124.695 59.8886 124.065 59.6286C123.445 59.3586 122.925 58.9836 122.505 58.5036C122.095 58.0136 121.79 57.4286 121.59 56.7486C121.39 56.0686 121.29 55.3136 121.29 54.4836C121.29 53.3836 121.47 52.4236 121.83 51.6036C122.19 50.7836 122.74 50.1436 123.48 49.6836C124.23 49.2236 125.17 48.9936 126.3 48.9936C127.4 48.9936 128.315 49.2236 129.045 49.6836C129.785 50.1336 130.34 50.7736 130.71 51.6036C131.08 52.4236 131.265 53.3886 131.265 54.4986ZM123 54.4986C123 55.3586 123.115 56.0986 123.345 56.7186C123.575 57.3286 123.935 57.8036 124.425 58.1436C124.915 58.4736 125.535 58.6386 126.285 58.6386C127.045 58.6386 127.665 58.4736 128.145 58.1436C128.625 57.8036 128.98 57.3286 129.21 56.7186C129.44 56.0986 129.555 55.3586 129.555 54.4986C129.555 53.2086 129.295 52.2036 128.775 51.4836C128.265 50.7536 127.44 50.3886 126.3 50.3886C125.54 50.3886 124.915 50.5536 124.425 50.8836C123.935 51.2136 123.575 51.6836 123.345 52.2936C123.115 52.9036 123 53.6386 123 54.4986ZM133.592 59.8686V49.1586H141.752V59.8686H140.147V50.5536H135.212V59.8686H133.592ZM150.652 59.8686H144.622V49.1586H150.652V50.5386H146.242V53.5986H150.382V54.9636H146.242V58.4736H150.652V59.8686ZM160.532 49.1586V58.4586H161.912V62.7786H160.352V59.8686H153.182V62.7786H151.637V58.4586H152.462C152.792 57.8586 153.112 57.1986 153.422 56.4786C153.732 55.7486 154.007 54.9836 154.247 54.1836C154.487 53.3736 154.687 52.5486 154.847 51.7086C155.017 50.8586 155.137 50.0086 155.207 49.1586H160.532ZM156.572 50.5686C156.522 51.1386 156.422 51.7686 156.272 52.4586C156.122 53.1386 155.937 53.8386 155.717 54.5586C155.507 55.2786 155.267 55.9786 154.997 56.6586C154.737 57.3286 154.462 57.9286 154.172 58.4586H158.927V50.5686H156.572ZM163.68 49.1586H165.165V54.8286C165.165 55.0786 165.16 55.3536 165.15 55.6536C165.15 55.9536 165.145 56.2486 165.135 56.5386C165.125 56.8286 165.11 57.0886 165.09 57.3186C165.08 57.5386 165.07 57.7036 165.06 57.8136H165.12L170.73 49.1586H172.59V59.8686H171.105V54.2436C171.105 53.9736 171.11 53.6836 171.12 53.3736C171.13 53.0536 171.14 52.7436 171.15 52.4436C171.17 52.1436 171.185 51.8836 171.195 51.6636C171.205 51.4336 171.215 51.2686 171.225 51.1686H171.165L165.54 59.8686H163.68V49.1586ZM183.183 59.8686H181.563V55.5486C180.963 55.7586 180.408 55.9236 179.898 56.0436C179.388 56.1636 178.838 56.2236 178.248 56.2236C177.248 56.2236 176.468 55.9886 175.908 55.5186C175.358 55.0486 175.083 54.3686 175.083 53.4786V49.1586H176.703V53.1486C176.703 53.7086 176.843 54.1286 177.123 54.4086C177.413 54.6886 177.883 54.8286 178.533 54.8286C179.073 54.8286 179.568 54.7786 180.018 54.6786C180.478 54.5686 180.993 54.4186 181.563 54.2286V49.1586H183.183V59.8686ZM192.063 59.8686H186.033V49.1586H192.063V50.5386H187.653V53.5986H191.793V54.9636H187.653V58.4736H192.063V59.8686ZM198.958 50.4036C198.428 50.4036 197.953 50.4986 197.533 50.6886C197.113 50.8686 196.753 51.1386 196.453 51.4986C196.163 51.8586 195.938 52.2936 195.778 52.8036C195.628 53.3136 195.553 53.8886 195.553 54.5286C195.553 55.3686 195.678 56.0986 195.928 56.7186C196.178 57.3286 196.553 57.7986 197.053 58.1286C197.553 58.4586 198.183 58.6236 198.943 58.6236C199.403 58.6236 199.843 58.5836 200.263 58.5036C200.693 58.4136 201.128 58.2986 201.568 58.1586V59.5536C201.148 59.7136 200.718 59.8286 200.278 59.8986C199.838 59.9786 199.328 60.0186 198.748 60.0186C197.658 60.0186 196.748 59.7936 196.018 59.3436C195.298 58.8936 194.758 58.2536 194.398 57.4236C194.038 56.5936 193.858 55.6236 193.858 54.5136C193.858 53.7036 193.968 52.9636 194.188 52.2936C194.418 51.6136 194.748 51.0286 195.178 50.5386C195.608 50.0486 196.138 49.6736 196.768 49.4136C197.408 49.1436 198.143 49.0086 198.973 49.0086C199.513 49.0086 200.043 49.0686 200.563 49.1886C201.083 49.2986 201.553 49.4586 201.973 49.6686L201.373 51.0186C201.023 50.8586 200.643 50.7186 200.233 50.5986C199.833 50.4686 199.408 50.4036 198.958 50.4036ZM211.96 59.8686H210.055L205.495 54.4386V59.8686H203.875V49.1586H205.495V54.3486L209.965 49.1586H211.75L207.325 54.3486L211.96 59.8686ZM213.397 49.1586H214.882V54.8286C214.882 55.0786 214.877 55.3536 214.867 55.6536C214.867 55.9536 214.862 56.2486 214.852 56.5386C214.842 56.8286 214.827 57.0886 214.807 57.3186C214.797 57.5386 214.787 57.7036 214.777 57.8136H214.837L220.447 49.1586H222.307V59.8686H220.822V54.2436C220.822 53.9736 220.827 53.6836 220.837 53.3736C220.847 53.0536 220.857 52.7436 220.867 52.4436C220.887 52.1436 220.902 51.8836 220.912 51.6636C220.922 51.4336 220.932 51.2686 220.942 51.1686H220.882L215.257 59.8686H213.397V49.1586ZM232.84 45.7686C232.8 46.2786 232.67 46.7136 232.45 47.0736C232.24 47.4236 231.915 47.6936 231.475 47.8836C231.045 48.0636 230.48 48.1536 229.78 48.1536C229.06 48.1536 228.485 48.0636 228.055 47.8836C227.635 47.6936 227.33 47.4236 227.14 47.0736C226.95 46.7236 226.835 46.2886 226.795 45.7686H228.25C228.3 46.3086 228.44 46.6736 228.67 46.8636C228.91 47.0436 229.29 47.1336 229.81 47.1336C230.26 47.1336 230.62 47.0386 230.89 46.8486C231.16 46.6486 231.32 46.2886 231.37 45.7686H232.84ZM225.16 49.1586H226.645V54.8286C226.645 55.0786 226.64 55.3536 226.63 55.6536C226.63 55.9536 226.625 56.2486 226.615 56.5386C226.605 56.8286 226.59 57.0886 226.57 57.3186C226.56 57.5386 226.55 57.7036 226.54 57.8136H226.6L232.21 49.1586H234.07V59.8686H232.585V54.2436C232.585 53.9736 232.59 53.6836 232.6 53.3736C232.61 53.0536 232.62 52.7436 232.63 52.4436C232.65 52.1436 232.665 51.8836 232.675 51.6636C232.685 51.4336 232.695 51.2686 232.705 51.1686H232.645L227.02 59.8686H225.16V49.1586ZM250.359 58.5036V62.7786H248.799V59.8686H240.804V49.1586H242.424V58.4586H247.359V49.1586H248.964V58.5036H250.359ZM258.128 59.8686H252.098V49.1586H258.128V50.5386H253.718V53.5986H257.858V54.9636H253.718V58.4736H258.128V59.8686ZM268.802 59.8686H267.182V54.9786H262.067V59.8686H260.447V49.1586H262.067V53.5986H267.182V49.1586H268.802V59.8686ZM275.268 59.8686H273.648V50.5536H270.438V49.1586H278.478V50.5536H275.268V59.8686ZM283.12 49.1586C284.52 49.1586 285.54 49.4436 286.18 50.0136C286.82 50.5736 287.14 51.3586 287.14 52.3686C287.14 52.8186 287.065 53.2486 286.915 53.6586C286.775 54.0686 286.54 54.4386 286.21 54.7686C285.88 55.0886 285.44 55.3436 284.89 55.5336C284.35 55.7136 283.685 55.8036 282.895 55.8036H281.74V59.8686H280.12V49.1586H283.12ZM283 50.5236H281.74V54.4386H282.715C283.325 54.4386 283.835 54.3736 284.245 54.2436C284.655 54.1036 284.96 53.8886 285.16 53.5986C285.37 53.2986 285.475 52.9086 285.475 52.4286C285.475 51.7886 285.275 51.3136 284.875 51.0036C284.485 50.6836 283.86 50.5236 283 50.5236Z" fill="white"/>
</g>
<defs>
<clipPath id="clip0_3_164">
<rect width="283" height="63" fill="white" transform="translate(6)"/>
</clipPath>
</defs>
</svg>
