<svg width="34" height="42" viewBox="0 0 34 42" fill="none" xmlns="http://www.w3.org/2000/svg">
<path d="M11 20.9975H23M17 14.9986V26.9965M33 22.9972C33 32.9955 26 37.9947 17.68 40.8942C17.2443 41.0418 16.7711 41.0348 16.34 40.8742C8 37.9947 1 32.9955 1 22.9972V8.99956C1 8.46921 1.21071 7.96059 1.58579 7.58558C1.96086 7.21057 2.46957 6.99989 3 6.99989C7 6.99989 12 4.6003 15.48 1.56081C15.9037 1.19886 16.4427 1 17 1C17.5573 1 18.0963 1.19886 18.52 1.56081C22.02 4.62029 27 6.99989 31 6.99989C31.5304 6.99989 32.0391 7.21057 32.4142 7.58558C32.7893 7.96059 33 8.46921 33 8.99956V22.9972Z" stroke="#FB61E3" stroke-width="2" stroke-linecap="round" stroke-linejoin="round"/>
</svg>
