<svg width="58" height="35" viewBox="0 0 58 35" fill="none" xmlns="http://www.w3.org/2000/svg">
<path d="M40 20.25L54.3632 29.8255C54.5703 29.9633 54.8109 30.0423 55.0593 30.0542C55.3077 30.0661 55.5547 30.0104 55.774 29.893C55.9933 29.7756 56.1766 29.6009 56.3044 29.3876C56.4323 29.1742 56.4999 28.9302 56.5 28.6815V6.1425C56.5001 5.90056 56.4363 5.66289 56.3151 5.45348C56.194 5.24407 56.0197 5.07034 55.8099 4.94982C55.6001 4.82931 55.3623 4.76628 55.1203 4.7671C54.8784 4.76792 54.641 4.83256 54.432 4.9545L40 13.375M7 1H34.5C37.5376 1 40 3.46243 40 6.5V28.5C40 31.5376 37.5376 34 34.5 34H7C3.96243 34 1.5 31.5376 1.5 28.5V6.5C1.5 3.46243 3.96243 1 7 1Z" stroke="#FB61E3" stroke-width="2" stroke-linecap="round" stroke-linejoin="round"/>
</svg>
